<?xml version="1.0" encoding="utf-8"?>
<!-- Generator: Adobe Illustrator 25.0.1, SVG Export Plug-In . SVG Version: 6.00 Build 0)  -->
<svg version="1.1" id="Layer_1" xmlns="http://www.w3.org/2000/svg" xmlns:xlink="http://www.w3.org/1999/xlink" x="0px" y="0px"
	 viewBox="0 0 450 220" style="enable-background:new 0 0 450 220;" xml:space="preserve">
<style type="text/css">
	.st0{clip-path:url(#SVGID_2_);fill:#FFFFFF;}
	.st1{clip-path:url(#SVGID_4_);fill:#1D1D1B;}
	.st2{clip-path:url(#SVGID_6_);fill:#FFFFFF;}
	.st3{clip-path:url(#SVGID_8_);fill:#FFFFFF;}
	.st4{clip-path:url(#SVGID_10_);fill:#FFFFFF;}
	.st5{clip-path:url(#SVGID_12_);fill:#FFFFFF;}
	.st6{clip-path:url(#SVGID_14_);fill:#382E2E;}
	.st7{clip-path:url(#SVGID_16_);fill:#1D1D1B;}
	.st8{clip-path:url(#SVGID_18_);fill:#FFFFFF;}
	.st9{clip-path:url(#SVGID_20_);enable-background:new    ;}
	.st10{clip-path:url(#SVGID_22_);}
	.st11{clip-path:url(#SVGID_24_);fill:#1D1D1B;}
	.st12{clip-path:url(#SVGID_26_);fill:#1D1D1B;}
	.st13{clip-path:url(#SVGID_28_);fill:#1D1D1B;}
	.st14{clip-path:url(#SVGID_30_);}
	.st15{clip-path:url(#SVGID_32_);fill:#1D1D1B;}
	.st16{clip-path:url(#SVGID_34_);fill:#1D1D1B;}
	.st17{clip-path:url(#SVGID_36_);fill:#1D1D1B;}
	.st18{clip-path:url(#SVGID_38_);}
	.st19{clip-path:url(#SVGID_40_);fill:#1D1D1B;}
	.st20{clip-path:url(#SVGID_42_);}
	.st21{clip-path:url(#SVGID_44_);fill:#1D1D1B;}
	.st22{clip-path:url(#SVGID_46_);}
	.st23{clip-path:url(#SVGID_48_);fill:#9BB9E2;}
	.st24{clip-path:url(#SVGID_50_);}
	.st25{clip-path:url(#SVGID_52_);fill:#9BB9E2;}
	.st26{clip-path:url(#SVGID_54_);}
	.st27{clip-path:url(#SVGID_56_);fill:#9BB9E2;}
	.st28{clip-path:url(#SVGID_58_);}
	.st29{clip-path:url(#SVGID_60_);fill:#9BB9E2;}
	.st30{clip-path:url(#SVGID_62_);}
	.st31{clip-path:url(#SVGID_64_);fill:#9BB9E2;}
	.st32{clip-path:url(#SVGID_66_);fill:#9BB9E2;}
	.st33{clip-path:url(#SVGID_68_);}
	.st34{clip-path:url(#SVGID_70_);fill:#9BB9E2;}
	.st35{clip-path:url(#SVGID_72_);}
	.st36{clip-path:url(#SVGID_74_);fill:#9BB9E2;}
	.st37{clip-path:url(#SVGID_76_);fill:#9BB9E2;}
	.st38{clip-path:url(#SVGID_78_);}
	.st39{clip-path:url(#SVGID_80_);fill:#9BB9E2;}
	.st40{clip-path:url(#SVGID_82_);}
	.st41{clip-path:url(#SVGID_84_);fill:#9BB9E2;}
</style>
<g>
	<defs>
		<path id="SVGID_1_" d="M419.6,159c-9.8,0-18.9-3-27-9.1l-0.5-0.4v-22.2l2.4,3.1c7.3,9.3,15.5,13.7,24.9,13.7c4.1,0,7.4-1.1,10-3.3
			c2.6-2.2,3.8-4.8,3.8-8c0-5.2-3.8-10.4-12.1-15.6h0l-10.5-6.4c-6.7-4.1-11.5-8.1-14.5-12.3c-3-4.1-4.5-8.9-4.4-14.3
			c0-7.9,2.8-14.6,8.4-19.6c5.6-5,12.8-7.5,21.5-7.5c8.3,0,16.1,2.4,23,7l0.6,0.4v19.6l-2.3-2.2c-6.8-6.5-13.9-9.7-21.6-9.7
			c-4.3,0-7.7,1-10.4,2.9c-2.6,1.9-3.8,4.1-3.8,6.9c0,2.6,0.9,4.9,2.9,7.3c2,2.3,5.3,4.9,10,7.7l10.6,6.3
			c12.1,7.2,18.4,16.7,18.4,28.1c0,8.1-2.8,14.8-8.2,19.9C435.3,156.4,428.2,159,419.6,159L419.6,159z"/>
	</defs>
	<clipPath id="SVGID_2_">
		<use xlink:href="#SVGID_1_"  style="overflow:visible;"/>
	</clipPath>
	<rect x="386.7" y="52.1" class="st0" width="67.2" height="111.8"/>
</g>
<g>
	<defs>
		<path id="SVGID_3_" d="M431.6,113.1c-2.6-2.4-10.3-5.8-17.7-10.9c-7.4-5.1-13.9-11.6-13.8-19.1c0-9,4.9-13.5,10.1-16
			c2.6-1.2,5.1-1.9,7.1-2.3c1.9-0.4,3.2-0.4,3.2-0.4c6.2,0.1,12.8,2.7,17.7,5.4c3.1,1.7,5.5,3.3,6.9,4.3v-3
			c-4.7-3.2-14.6-9-24.7-9.2c-0.2,0-5.7,0.2-11.3,2.9c-5.6,2.7-11.5,8.2-11.5,18.2c0.1,9,7.4,15.9,14.9,21.1
			c7.5,5.2,15.7,9,17.4,10.7c4.6,4.4,10.3,6.3,10.4,18.2c0,5.1-2.6,9.5-6.4,12.6c-3.7,3.1-8.6,4.9-12.7,4.9
			c-7.2,0-15.2-1.7-29.5-12.7v3.1c13.5,10.1,22,12,29.4,12h0.1c9.5,0,21.4-7.8,21.5-19.9C442.8,120.2,435.5,116.9,431.6,113.1"/>
	</defs>
	<clipPath id="SVGID_4_">
		<use xlink:href="#SVGID_3_"  style="overflow:visible;"/>
	</clipPath>
	<rect x="386.7" y="57.1" class="st1" width="63.3" height="100.9"/>
</g>
<g>
	<defs>
		<polygon id="SVGID_5_" points="78.3,157 78.3,115.1 26.5,115.1 26.5,157 9.9,157 9.9,58.1 26.5,58.1 26.5,99.7 78.3,99.7 
			78.3,59.4 78.3,58.1 95,58.1 95,157 		"/>
	</defs>
	<clipPath id="SVGID_6_">
		<use xlink:href="#SVGID_5_"  style="overflow:visible;"/>
	</clipPath>
	<rect x="5" y="53.1" class="st2" width="94.9" height="108.8"/>
</g>
<g>
	<defs>
		<polygon id="SVGID_7_" points="118.7,157 118.7,59.4 118.7,58.1 175.7,58.1 175.7,73 135.1,73 135.1,99.7 174.4,99.7 174.4,114.8 
			135.1,114.8 135.1,142 177,142 177,157 		"/>
	</defs>
	<clipPath id="SVGID_8_">
		<use xlink:href="#SVGID_7_"  style="overflow:visible;"/>
	</clipPath>
	<rect x="113.7" y="53.1" class="st3" width="68.2" height="108.8"/>
</g>
<g>
	<defs>
		<path id="SVGID_9_" d="M225.8,114.3h26l-13.5-30.2L225.8,114.3z M271.6,158l-12.9-28.6h-39.5L207.1,158h-17.2l42.4-99.1l0.4-0.8
			h11.5l44.6,99.9H271.6z"/>
	</defs>
	<clipPath id="SVGID_10_">
		<use xlink:href="#SVGID_9_"  style="overflow:visible;"/>
	</clipPath>
	<rect x="184.9" y="53.1" class="st4" width="108.8" height="109.8"/>
</g>
<g>
	<defs>
		<polygon id="SVGID_11_" points="304.6,157 304.6,59.4 304.6,58.1 321.2,58.1 321.2,141.7 364.9,141.7 364.9,157 		"/>
	</defs>
	<clipPath id="SVGID_12_">
		<use xlink:href="#SVGID_11_"  style="overflow:visible;"/>
	</clipPath>
	<rect x="299.7" y="53.1" class="st5" width="70.2" height="108.8"/>
</g>
<g>
	<defs>
		<path id="SVGID_13_" d="M354.9,89.1h-1.2H354.9z M352.5,86.2l0.4-0.4c1.8-1.7,3-3.3,3.7-4.9c0.6-1.4,1-3.3,1.2-5.9
			c-4.2-1.5-6.6-4.7-6.6-8.8c0-2.5,0.9-4.7,2.6-6.5c1.7-1.8,3.9-2.8,6.3-2.7c2.9,0,5.4,1.3,7.2,3.8c1.8,2.4,2.7,5.5,2.7,9.1
			c0,4.8-1.4,9-4.2,12.6c-2.8,3.6-6.7,6.2-11.6,7.7l-1.6,0.5V86.2z"/>
	</defs>
	<clipPath id="SVGID_14_">
		<use xlink:href="#SVGID_13_"  style="overflow:visible;"/>
	</clipPath>
	<rect x="346.1" y="52.1" class="st6" width="28.7" height="43.5"/>
</g>
<g>
	<defs>
		<path id="SVGID_15_" d="M356.7,86.8c1.1-1.4,2-2.7,2.6-4.1c0.7-1.7,1.2-4.1,1.4-6.9l0.1-2.2l-2.1-0.8c-2.2-0.8-4.7-2.5-4.6-6.2
			c0-1.9,0.6-3.4,1.8-4.7c1.2-1.2,2.6-1.9,4.1-1.9c2.5,0,4,1.4,4.9,2.6c1.4,1.9,2.1,4.5,2.1,7.6c0,4.2-1.2,8-3.6,11.1
			C361.6,83.6,359.3,85.4,356.7,86.8"/>
	</defs>
	<clipPath id="SVGID_16_">
		<use xlink:href="#SVGID_15_"  style="overflow:visible;"/>
	</clipPath>
	<rect x="349.1" y="55.1" class="st7" width="22.7" height="36.6"/>
</g>
<g>
	<defs>
		<path id="SVGID_17_" d="M360.1,62.9h-0.1c-0.3,0-1,0-1.9,0.9c-0.7,0.7-1,1.6-1,2.6v0.1v0.1c0,0.7,0,2.3,2.7,3.3l4.1,1.5l0,0.7
			c0.1-0.6,0.1-1.3,0.1-2c0-2.4-0.5-4.3-1.5-5.7C361.5,63,360.6,62.9,360.1,62.9z M353.7,89.1h1.2H353.7z M360.1,57.1
			c2.9,0,5.4,1.4,7.2,3.8c1.8,2.4,2.7,5.5,2.7,9.1c0,4.8-1.4,9-4.2,12.6c-2.8,3.6-6.7,6.2-11.6,7.7l-1.6,0.5v-4.5l0.4-0.3
			c1.8-1.7,3-3.3,3.7-4.9c0.6-1.4,1-3.3,1.2-5.9c-4.2-1.5-6.6-4.7-6.6-8.8c0-2.5,0.9-4.7,2.6-6.5c1.7-1.8,3.8-2.7,6.2-2.7H360.1
			L360.1,57.1z"/>
	</defs>
	<clipPath id="SVGID_18_">
		<use xlink:href="#SVGID_17_"  style="overflow:visible;"/>
	</clipPath>
	<rect x="346.1" y="52.1" class="st8" width="28.7" height="43.5"/>
</g>
<g>
	<defs>
		<rect id="SVGID_19_" x="1" y="1.7" width="447" height="216.6"/>
	</defs>
	<clipPath id="SVGID_20_">
		<use xlink:href="#SVGID_19_"  style="overflow:visible;"/>
	</clipPath>
	<g class="st9">
		<g>
			<defs>
				<rect id="SVGID_21_" x="1" y="1.7" width="441.1" height="216.6"/>
			</defs>
			<clipPath id="SVGID_22_">
				<use xlink:href="#SVGID_21_"  style="overflow:visible;"/>
			</clipPath>
			<g class="st10">
				<defs>
					<rect id="SVGID_23_" x="16.5" y="58.1" width="2.7" height="98.9"/>
				</defs>
				<clipPath id="SVGID_24_">
					<use xlink:href="#SVGID_23_"  style="overflow:visible;"/>
				</clipPath>
				<rect x="11.5" y="53.1" class="st11" width="12.5" height="108.8"/>
			</g>
			<g class="st10">
				<defs>
					<rect id="SVGID_25_" x="84.7" y="58.1" width="2.7" height="98.9"/>
				</defs>
				<clipPath id="SVGID_26_">
					<use xlink:href="#SVGID_25_"  style="overflow:visible;"/>
				</clipPath>
				<rect x="79.8" y="53.1" class="st12" width="12.5" height="108.8"/>
			</g>
			<g class="st10">
				<defs>
					<rect id="SVGID_27_" x="18.8" y="106.2" width="68.2" height="2.7"/>
				</defs>
				<clipPath id="SVGID_28_">
					<use xlink:href="#SVGID_27_"  style="overflow:visible;"/>
				</clipPath>
				<rect x="13.9" y="101.3" class="st13" width="78.1" height="12.5"/>
			</g>
			<g class="st10">
				<defs>
					<polygon id="SVGID_29_" points="125.6,152 125.6,65 175.9,65 175.9,67.5 128.1,67.5 128.1,149.6 177,149.6 177,152 					"/>
				</defs>
				<clipPath id="SVGID_30_">
					<use xlink:href="#SVGID_29_"  style="overflow:visible;"/>
				</clipPath>
				<g class="st14">
					<defs>
						<rect id="SVGID_31_" x="1" y="1.7" width="447" height="216.6"/>
					</defs>
					<clipPath id="SVGID_32_">
						<use xlink:href="#SVGID_31_"  style="overflow:visible;"/>
					</clipPath>
					<rect x="120.7" y="60.1" class="st15" width="61.3" height="96.9"/>
				</g>
			</g>
			<g class="st10">
				<defs>
					<rect id="SVGID_33_" x="126.6" y="106.2" width="48.5" height="2.7"/>
				</defs>
				<clipPath id="SVGID_34_">
					<use xlink:href="#SVGID_33_"  style="overflow:visible;"/>
				</clipPath>
				<rect x="121.7" y="101.3" class="st16" width="58.3" height="12.5"/>
			</g>
			<g class="st10">
				<defs>
					<rect id="SVGID_35_" x="214.6" y="120" width="48.5" height="2.6"/>
				</defs>
				<clipPath id="SVGID_36_">
					<use xlink:href="#SVGID_35_"  style="overflow:visible;"/>
				</clipPath>
				<rect x="209.7" y="115.1" class="st17" width="58.3" height="12.5"/>
			</g>
			<g class="st10">
				<defs>
					<polygon id="SVGID_37_" points="311.5,151 311.5,58.1 311.5,58.1 314,58.1 314,148.6 364.9,148.6 364.9,151 					"/>
				</defs>
				<clipPath id="SVGID_38_">
					<use xlink:href="#SVGID_37_"  style="overflow:visible;"/>
				</clipPath>
				<g class="st18">
					<defs>
						<rect id="SVGID_39_" x="1" y="1.7" width="447" height="216.6"/>
					</defs>
					<clipPath id="SVGID_40_">
						<use xlink:href="#SVGID_39_"  style="overflow:visible;"/>
					</clipPath>
					<rect x="306.6" y="53.1" class="st19" width="63.3" height="102.9"/>
				</g>
			</g>
			<g class="st10">
				<defs>
					<polygon id="SVGID_41_" points="199.5,157 238.4,70 279.1,157 281.9,157 238.4,64 196.8,157 					"/>
				</defs>
				<clipPath id="SVGID_42_">
					<use xlink:href="#SVGID_41_"  style="overflow:visible;"/>
				</clipPath>
				<g class="st20">
					<defs>
						<rect id="SVGID_43_" x="1" y="1.7" width="447" height="216.6"/>
					</defs>
					<clipPath id="SVGID_44_">
						<use xlink:href="#SVGID_43_"  style="overflow:visible;"/>
					</clipPath>
					<rect x="191.9" y="59.1" class="st21" width="94.9" height="102.9"/>
				</g>
			</g>
			<g class="st10">
				<defs>
					<polygon id="SVGID_45_" points="1,1.7 27.7,1.7 27.7,5.9 16.6,5.9 16.6,34.3 12,34.3 12,5.9 1,5.9 					"/>
				</defs>
				<clipPath id="SVGID_46_">
					<use xlink:href="#SVGID_45_"  style="overflow:visible;"/>
				</clipPath>
				<g class="st22">
					<defs>
						<rect id="SVGID_47_" x="1" y="1.7" width="447" height="216.6"/>
					</defs>
					<clipPath id="SVGID_48_">
						<use xlink:href="#SVGID_47_"  style="overflow:visible;"/>
					</clipPath>
					<rect x="-3.9" y="-3.2" class="st23" width="36.6" height="42.5"/>
				</g>
			</g>
			<g class="st10">
				<defs>
					<polygon id="SVGID_49_" points="58.6,1.7 63.3,1.7 63.3,34.3 58.6,34.3 58.6,20.1 40.3,20.1 40.3,34.3 35.6,34.3 35.6,1.7 
						40.3,1.7 40.3,15.8 58.6,15.8 					"/>
				</defs>
				<clipPath id="SVGID_50_">
					<use xlink:href="#SVGID_49_"  style="overflow:visible;"/>
				</clipPath>
				<g class="st24">
					<defs>
						<rect id="SVGID_51_" x="1" y="1.7" width="447" height="216.6"/>
					</defs>
					<clipPath id="SVGID_52_">
						<use xlink:href="#SVGID_51_"  style="overflow:visible;"/>
					</clipPath>
					<rect x="30.7" y="-3.2" class="st25" width="37.6" height="42.5"/>
				</g>
			</g>
			<g class="st10">
				<defs>
					<polygon id="SVGID_53_" points="74.2,1.7 92.5,1.7 92.5,5.9 78.8,5.9 78.8,15.8 92.1,15.8 92.1,20 78.8,20 78.8,30.2 93,30.2 
						93,34.3 74.2,34.3 					"/>
				</defs>
				<clipPath id="SVGID_54_">
					<use xlink:href="#SVGID_53_"  style="overflow:visible;"/>
				</clipPath>
				<g class="st26">
					<defs>
						<rect id="SVGID_55_" x="1" y="1.7" width="447" height="216.6"/>
					</defs>
					<clipPath id="SVGID_56_">
						<use xlink:href="#SVGID_55_"  style="overflow:visible;"/>
					</clipPath>
					<rect x="69.2" y="-3.2" class="st27" width="28.7" height="42.5"/>
				</g>
			</g>
			<g class="st10">
				<defs>
					<path id="SVGID_57_" d="M216.9,202.8h-4.4v10.4h4.7c2.6,0,4.4-0.2,5.3-0.6c0.9-0.4,1.7-1,2.2-1.9c0.6-0.8,0.8-1.7,0.8-2.7
						c0-1-0.3-1.9-0.9-2.7c-0.6-0.8-1.4-1.4-2.5-1.8C221,203,219.3,202.8,216.9,202.8 M216.5,188.8h-4.1v9.8h3.2
						c2.5,0,4.3-0.5,5.4-1.4c1.1-0.9,1.6-2.2,1.6-3.7C222.6,190.4,220.6,188.8,216.5,188.8 M218.9,217.3h-11.3v-32.6h8.7
						c2.7,0,4.9,0.4,6.4,1.1c1.5,0.7,2.7,1.7,3.5,3c0.8,1.3,1.2,2.7,1.2,4.4c0,3.2-1.7,5.5-5.1,6.9c2.4,0.5,4.4,1.4,5.8,2.9
						c1.4,1.5,2.2,3.3,2.2,5.4c0,1.7-0.4,3.2-1.3,4.5c-0.9,1.3-2.2,2.4-3.8,3.2C223.6,216.9,221.5,217.3,218.9,217.3"/>
				</defs>
				<clipPath id="SVGID_58_">
					<use xlink:href="#SVGID_57_"  style="overflow:visible;"/>
				</clipPath>
				<g class="st28">
					<defs>
						<rect id="SVGID_59_" x="1" y="1.7" width="447" height="216.6"/>
					</defs>
					<clipPath id="SVGID_60_">
						<use xlink:href="#SVGID_59_"  style="overflow:visible;"/>
					</clipPath>
					<rect x="202.7" y="179.7" class="st29" width="32.6" height="42.5"/>
				</g>
			</g>
			<g class="st10">
				<defs>
					<path id="SVGID_61_" d="M260.4,185.7h4.6V204c0,2.5-0.2,4.3-0.5,5.6c-0.4,1.3-0.8,2.3-1.3,3.2c-0.5,0.8-1.2,1.6-1.9,2.3
						c-2.5,2.2-5.9,3.3-10,3.3c-4.2,0-7.6-1.1-10.1-3.3c-0.8-0.7-1.4-1.4-1.9-2.3c-0.5-0.8-1-1.9-1.3-3.1c-0.3-1.2-0.5-3.1-0.5-5.7
						v-18.3h4.6V204c0,3,0.3,5.1,1,6.3c0.7,1.2,1.7,2.1,3.2,2.9c1.4,0.7,3.1,1.1,5,1.1c2.7,0,5-0.7,6.7-2.1c0.9-0.8,1.6-1.7,2-2.7
						c0.4-1,0.6-2.8,0.6-5.4V185.7z"/>
				</defs>
				<clipPath id="SVGID_62_">
					<use xlink:href="#SVGID_61_"  style="overflow:visible;"/>
				</clipPath>
				<g class="st30">
					<defs>
						<rect id="SVGID_63_" x="1" y="1.7" width="447" height="216.6"/>
					</defs>
					<clipPath id="SVGID_64_">
						<use xlink:href="#SVGID_63_"  style="overflow:visible;"/>
					</clipPath>
					<rect x="232.4" y="180.7" class="st31" width="37.6" height="42.5"/>
				</g>
			</g>
			<g class="st10">
				<defs>
					<rect id="SVGID_65_" x="275.9" y="184.7" width="4.9" height="32.6"/>
				</defs>
				<clipPath id="SVGID_66_">
					<use xlink:href="#SVGID_65_"  style="overflow:visible;"/>
				</clipPath>
				<rect x="271" y="179.7" class="st32" width="14.8" height="42.5"/>
			</g>
			<g class="st10">
				<defs>
					<polygon id="SVGID_67_" points="290.8,184.7 295.5,184.7 295.5,213.1 310.5,213.1 310.5,217.3 290.8,217.3 					"/>
				</defs>
				<clipPath id="SVGID_68_">
					<use xlink:href="#SVGID_67_"  style="overflow:visible;"/>
				</clipPath>
				<g class="st33">
					<defs>
						<rect id="SVGID_69_" x="1" y="1.7" width="447" height="216.6"/>
					</defs>
					<clipPath id="SVGID_70_">
						<use xlink:href="#SVGID_69_"  style="overflow:visible;"/>
					</clipPath>
					<rect x="285.8" y="179.7" class="st34" width="29.7" height="42.5"/>
				</g>
			</g>
			<g class="st10">
				<defs>
					<path id="SVGID_71_" d="M328.9,188.8h-5.8v24.3h5.9c2.3,0,4.1-0.2,5.4-0.5c1.3-0.3,2.3-0.7,3.2-1.2c0.9-0.5,1.6-1.1,2.3-1.8
						c2.3-2.3,3.4-5.3,3.4-8.9c0-3.5-1.2-6.4-3.5-8.6c-0.9-0.8-1.9-1.5-3-2c-1.1-0.5-2.2-0.9-3.2-1.1
						C332.7,188.9,331.1,188.8,328.9,188.8z M318.5,217.3v-32.6h10.9c4.4,0,7.9,0.7,10.4,2c2.6,1.3,4.6,3.3,6.1,5.9
						c1.5,2.6,2.3,5.4,2.3,8.5c0,2.2-0.4,4.3-1.2,6.3c-0.8,2-2,3.8-3.6,5.3c-1.6,1.6-3.4,2.7-5.5,3.5c-1.2,0.5-2.3,0.8-3.4,1
						c-1,0.2-3,0.2-5.8,0.2H318.5z"/>
				</defs>
				<clipPath id="SVGID_72_">
					<use xlink:href="#SVGID_71_"  style="overflow:visible;"/>
				</clipPath>
				<g class="st35">
					<defs>
						<rect id="SVGID_73_" x="1" y="1.7" width="447" height="216.6"/>
					</defs>
					<clipPath id="SVGID_74_">
						<use xlink:href="#SVGID_73_"  style="overflow:visible;"/>
					</clipPath>
					<rect x="313.5" y="179.7" class="st36" width="39.6" height="42.5"/>
				</g>
			</g>
			<g class="st10">
				<defs>
					<rect id="SVGID_75_" x="357" y="184.7" width="4.9" height="32.6"/>
				</defs>
				<clipPath id="SVGID_76_">
					<use xlink:href="#SVGID_75_"  style="overflow:visible;"/>
				</clipPath>
				<rect x="352.1" y="179.7" class="st37" width="14.8" height="42.5"/>
			</g>
			<g class="st10">
				<defs>
					<polygon id="SVGID_77_" points="398.2,184.7 402.5,184.7 402.5,217.3 398.6,217.3 377.2,192.2 377.2,217.3 372.8,217.3 
						372.8,184.7 376.6,184.7 398.2,210 					"/>
				</defs>
				<clipPath id="SVGID_78_">
					<use xlink:href="#SVGID_77_"  style="overflow:visible;"/>
				</clipPath>
				<g class="st38">
					<defs>
						<rect id="SVGID_79_" x="1" y="1.7" width="447" height="216.6"/>
					</defs>
					<clipPath id="SVGID_80_">
						<use xlink:href="#SVGID_79_"  style="overflow:visible;"/>
					</clipPath>
					<rect x="367.9" y="179.7" class="st39" width="39.6" height="42.5"/>
				</g>
			</g>
			<g class="st10">
				<defs>
					<path id="SVGID_81_" d="M431.2,201.7h10.9v13.9c-4,1.8-8,2.6-11.9,2.6c-5.4,0-9.7-1.6-12.9-4.8c-3.2-3.2-4.8-7.1-4.8-11.7
						c0-4.9,1.7-9,5-12.2c3.3-3.3,7.5-4.9,12.6-4.9c1.8,0,3.6,0.2,5.2,0.6c1.6,0.4,3.7,1.1,6.2,2.2v4.8c-3.9-2.3-7.7-3.4-11.6-3.4
						c-3.6,0-6.6,1.2-9,3.7c-2.4,2.4-3.7,5.4-3.7,9c0,3.7,1.2,6.8,3.7,9.1c2.4,2.4,5.6,3.5,9.4,3.5c1.9,0,4.1-0.4,6.7-1.3l0.4-0.1
						v-6.8h-6.3V201.7z"/>
				</defs>
				<clipPath id="SVGID_82_">
					<use xlink:href="#SVGID_81_"  style="overflow:visible;"/>
				</clipPath>
				<g class="st40">
					<defs>
						<rect id="SVGID_83_" x="1" y="1.7" width="447" height="216.6"/>
					</defs>
					<clipPath id="SVGID_84_">
						<use xlink:href="#SVGID_83_"  style="overflow:visible;"/>
					</clipPath>
					<rect x="407.5" y="179.7" class="st41" width="39.6" height="43.5"/>
				</g>
			</g>
		</g>
	</g>
</g>
</svg>
