<?xml version="1.0" encoding="utf-8"?>
<!-- Generator: Adobe Illustrator 25.0.1, SVG Export Plug-In . SVG Version: 6.00 Build 0)  -->
<svg version="1.1" id="Layer_1" xmlns="http://www.w3.org/2000/svg" xmlns:xlink="http://www.w3.org/1999/xlink" x="0px" y="0px"
	 viewBox="0 0 42 49" style="enable-background:new 0 0 42 49;" xml:space="preserve">
<style type="text/css">
	.st0{clip-path:url(#SVGID_2_);}
	.st1{clip-path:url(#SVGID_4_);fill:#FFFFFF;}
	.st2{clip-path:url(#SVGID_6_);fill:#1D1D1B;}
	.st3{clip-path:url(#SVGID_8_);fill:#1D1D1B;}
	.st4{clip-path:url(#SVGID_10_);fill:#1D1D1B;}
</style>
<g>
	<defs>
		<polygon id="SVGID_1_" points="33.2,47.7 33.2,27.9 8.8,27.9 8.8,47.7 1,47.7 1,1 8.8,1 8.8,20.6 33.2,20.6 33.2,1.6 33.2,1 41,1 
			41,47.7 		"/>
	</defs>
	<clipPath id="SVGID_2_">
		<use xlink:href="#SVGID_1_"  style="overflow:visible;"/>
	</clipPath>
	<g class="st0">
		<defs>
			<rect id="SVGID_3_" x="-232.8" y="-36.7" width="1870.6" height="6344.5"/>
		</defs>
		<clipPath id="SVGID_4_">
			<use xlink:href="#SVGID_3_"  style="overflow:visible;"/>
		</clipPath>
		<rect x="-5.5" y="-5.5" class="st1" width="53" height="59.6"/>
	</g>
</g>
<g>
	<defs>
		<rect id="SVGID_5_" x="4.1" y="1" width="1.2" height="46.7"/>
	</defs>
	<clipPath id="SVGID_6_">
		<use xlink:href="#SVGID_5_"  style="overflow:visible;"/>
	</clipPath>
	<rect x="-2.4" y="-5.5" class="st2" width="14.2" height="59.6"/>
</g>
<g>
	<defs>
		<rect id="SVGID_7_" x="36.2" y="1" width="1.2" height="46.7"/>
	</defs>
	<clipPath id="SVGID_8_">
		<use xlink:href="#SVGID_7_"  style="overflow:visible;"/>
	</clipPath>
	<rect x="29.7" y="-5.5" class="st3" width="14.2" height="59.6"/>
</g>
<g>
	<defs>
		<rect id="SVGID_9_" x="5.2" y="23.7" width="32.1" height="1.3"/>
	</defs>
	<clipPath id="SVGID_10_">
		<use xlink:href="#SVGID_9_"  style="overflow:visible;"/>
	</clipPath>
	<rect x="-1.3" y="17.2" class="st4" width="45.1" height="14.2"/>
</g>
</svg>
